<svg fill="none" height="32" viewBox="0 0 100 100" width="32" xmlns="http://www.w3.org/2000/svg" xmlns:xlink="http://www.w3.org/1999/xlink"><linearGradient id="paint0_linear_215_38" gradientUnits="userSpaceOnUse" x1="50" x2="50" y1="0" y2="100"><stop offset="0" stop-color="#19afff"/><stop offset="1" stop-color="#0062e0"/></linearGradient><clipPath id="clip0_215_38"><path d="m0 0h100v100h-100z"/></clipPath><g clip-path="url(#clip0_215_38)"><rect fill="url(#paint0_linear_215_38)" height="100" rx="10" width="100"/><path d="m41.5625 56.4375h24.4375l-7.9375-10.6875-6.4375 8.4375-4.25-5.4375zm-5.3125 11.0625c-1 0-1.875-.375-2.625-1.125s-1.125-1.625-1.125-2.625v-35c0-1 .375-1.875 1.125-2.625s1.625-1.125 2.625-1.125h35c1 0 1.875.375 2.625 1.125s1.125 1.625 1.125 2.625v35c0 1-.375 1.875-1.125 2.625s-1.625 1.125-2.625 1.125zm0-3.75h35v-35h-35zm-7.5 11.25c-1 0-1.875-.375-2.625-1.125s-1.125-1.625-1.125-2.625v-38.75h3.75v38.75h38.75v3.75zm7.5-46.25h35v35h-35z" fill="#fff"/></g></svg>